<?xml version="1.0" encoding="UTF-8"?>
<svg id="Layer_2" data-name="Layer 2" xmlns="http://www.w3.org/2000/svg" viewBox="0 0 404.1 181.1">
  <defs>
    <style>
      .cls-1 {
        fill: #19406d;
      }

      .cls-2 {
        fill: #c23536;
      }

      .cls-3 {
        fill: #348a35;
      }
    </style>
  </defs>
  <g id="Layer_3" data-name="Layer 3">
    <g>
      <g>
        <g>
          <path class="cls-1" d="M106.32,85.43l-7.84-9.81c-3.69-.42-8.81.69-11.3-2.77-.5-.7-.71-1.87-1.16-2.3-1.07-1-5.55-2.74-7.15-3.69-.25-.15-.63-.23-.69-.58,8.66-.27,17.3.8,25.84,1.95l2.3,17.19Z"/>
          <path class="cls-1" d="M150.26,116.33c8.84-14.92.6-27.59-8.18-40.25l5.07-3.46-15.8-19.28c-.34-.93,1.58-2.98,1.16-3.89-15.15-15.13-34.86-29.27-57.41-27.2-.23.04-2.1.2-1.53.66,14.61,4.21,25.6,16.58,34.61,28.27.49.24,1.49-.13,2.07-.24,3.54-.67,7.01-1.91,10.56-2.61,6.56,3.23,9.83,11.86,14.35,17.38l-15.22,2.42,9.92,22.6c-2.9.12-5.76.82-8.66.7-4.23-.17-7.01-.75-11.53-.47-12.59-.46,6.62,9.71,8.55,11.31l-.39,6.66-22.65,9.69-6.61-6.08c.22-.45,5.47-2.23,6.36-2.63.27-.12.41.11.32-.48l-10.36-4.75,3.64-8.36-23.41-15.58c2.79,13.57,6.71,28.75,12.26,45.04,5.77,16.93,12.23,31.86,18.56,44.67,3.68-3.23,9.79-8.47,17.61-14.67,18.55-14.7,26.04-18.34,29.61-28.01,1.46-3.97,2.91-10.7.31-20.63,2.86,2.55,4.73,6.02,6.8,9.22ZM127.43,127.87c-.25.68-1.24,1.78-1.74,2.42-1.05,1.32-2.28,2.59-3.45,3.81-.01-2.68-.05-5.51-.81-8.07-1.95,3.5-4.08,6.87-6.69,9.91l-9.46-7.38c-.15,1.76.54,3.52.71,5.29.03.32.33.55-.25.48l-6.92-6.47-.7-5.78,20.65-9.12c.24-.13.45-.08.69,0,.56.16,3.45,2.1,4.13,2.58.83.57,4.25,3.13,4.4,3.9.27,1.4-.07,7.05-.57,8.42ZM130.31,115.42l-7.72-6.47c-.38-.62.13-6.54.68-7.16l10.51-7.37c1.69,7.2-2.03,14.07-3.46,20.99ZM133.43,90.04l-7.03-13.5c.02-.8,2.84-1.74,3.46-2.53,1.17-1.47-.23-4.82,2.05-4.72l6.24,13.04c-.78,2.97-2.99,5.27-4.73,7.71Z"/>
        </g>
        <g>
          <path class="cls-2" d="M104.02,50.36c-8.16-1.84-16.42-3.3-24.75-4.2-5-4.83-11.23-7.52-17.97-9.02-7.6-1.7-16.26-2.78-18.81,6.48-1.84,6.69-.86,15.9,3.61,21.41l-.1.33c-14.33,9.54-25.65,23.08-35.07,37.36L0,90.81l27.78-30.77,3.38-29.49c10.25-.93,20.5-2.25,30.76-3.03,3.34-.25,6.8-.59,10.14-.7,4.43-.15,5.24-.07,8.96,2.13,8.03,4.75,15.01,11.83,21.14,18.76l1.85,2.65Z"/>
          <path class="cls-2" d="M73.97,52.3c.77-.42,2.82-1.74,3.14-1.97-.42-3.9-15.49-9.26-19.64-9.59-6.61-1.1-10.7-1.42-11.35,6.51-.83,7.35,1.28,14.6,7.34,19.13-14.01,10.62-31.23,23.12-39.79,39.57,0,0,13.84,15.26,13.84,15.26.32.21,2.53,29,2.66,29.3,9.16,1.78,20.53,2.6,29.79,3.2l-19.04-11c.33-5.3,1.04-12.64,2.76-21.26,2.06-10.34,4.23-18.04,7.29-25.61,4.52-11.16,10.92-26.94,10.92-26.94,0,0,.77-1.63,2.05-3.85.21-.36.43-.74.66-1.13-.89-.15-7.69-1.43-10.87-7.6-1.61-3.13-2.01-8.07-1.96-8.18l22.19,4.16Z"/>
          <path class="cls-3" d="M61.28,78.96c-3.17,8.63-6.26,18.52-8.83,29.57-2.84,12.21-4.48,23.47-5.4,33.39,7.23,4.05,15.16,9.03,23.43,15.14,7.73,5.72,14.42,11.45,20.13,16.83-5.76-11.17-11.64-24.39-16.74-39.59-6.96-20.73-10.63-39.64-12.58-55.34Z"/>
        </g>
        <path class="cls-3" d="M194.1,90.2l-28.39,31.18-2.4,28.32-26.48,3.32-36.56,28.09h-.44l-4.11-3.1-1.74-1.93c8.83-5.84,18.13-12.51,27.67-20.13,7.18-5.73,13.79-11.42,19.85-16.98l11.01-1.38,1.9-22.48,22.53-24.75-22.52-24.21-2.63-22.93-20.9-1.76c-8.73-6.35-17.25-12.99-26-19.31-.63-.45-4.66-3.47-4.95-3.38l-4.08,3.01c-1.55-.38-3.18-.73-4.9-1.04-6.96-1.23-14.35-2.31-21.28-.53L97.09,0c.36-.11,5.45,3.69,6.24,4.26,11.03,7.96,21.76,16.33,32.76,24.33l26.33,2.22,3.31,28.88,28.37,30.5Z"/>
      </g>
      <g>
        <g>
          <path class="cls-1" d="M236.11,146.64v2.88h-17.37v-25.59h17.05v2.88h-13.8v8.29h12v2.7h-12v8.83h14.13Z"/>
          <path class="cls-1" d="M256.18,149.53h-3.17v-10.43c0-1.98-.31-3.42-.92-4.34-.61-.92-1.54-1.38-2.79-1.38-.86,0-1.72.21-2.58.64-.85.43-1.61,1-2.27,1.73-.66.72-1.14,1.56-1.42,2.51v11.27h-3.17v-18.71h2.88v4.04c.5-.88,1.15-1.65,1.95-2.29.79-.64,1.69-1.14,2.7-1.5,1.01-.36,2.07-.54,3.17-.54s1.99.2,2.72.59c.73.39,1.31.94,1.73,1.65.42.7.72,1.53.9,2.49.18.95.27,1.99.27,3.11v11.16Z"/>
          <path class="cls-1" d="M270.67,148.7c-.26.12-.62.28-1.08.47-.46.19-.99.36-1.59.5-.6.14-1.24.22-1.91.22-.77,0-1.48-.14-2.13-.41-.65-.28-1.17-.71-1.55-1.3-.38-.59-.58-1.33-.58-2.22v-12.65h-2.56v-2.49h2.56v-6.27h3.17v6.27h4.22v2.49h-4.22v11.68c.05.67.28,1.17.68,1.5.41.32.89.49,1.44.49.62,0,1.2-.11,1.73-.32.53-.22.88-.37,1.05-.47l.76,2.52Z"/>
          <path class="cls-1" d="M283.57,133.49c-1.59.02-2.99.43-4.2,1.21-1.21.78-2.07,1.86-2.58,3.23v11.61h-3.17v-18.71h2.96v4.25c.65-1.3,1.51-2.35,2.58-3.15,1.07-.8,2.19-1.26,3.37-1.35h.61c.17,0,.31.01.43.04v2.88Z"/>
          <path class="cls-1" d="M294.6,149.89c-1.42,0-2.71-.26-3.87-.77-1.17-.51-2.17-1.22-3.03-2.11-.85-.89-1.51-1.93-1.98-3.09-.47-1.17-.7-2.41-.7-3.72,0-1.77.41-3.37,1.23-4.83.82-1.45,1.95-2.62,3.41-3.51,1.45-.88,3.12-1.32,4.99-1.32s3.55.45,4.96,1.34c1.41.9,2.5,2.06,3.28,3.51.78,1.44,1.17,3,1.17,4.67,0,.24,0,.47-.02.7-.01.23-.03.4-.05.52h-15.61c.1,1.21.44,2.29,1.03,3.22.59.94,1.35,1.67,2.29,2.21s1.95.8,3.03.8c1.15,0,2.24-.29,3.26-.87,1.02-.58,1.72-1.33,2.11-2.27l2.74.76c-.41.91-1.02,1.73-1.82,2.45-.81.72-1.75,1.29-2.85,1.69-1.09.41-2.28.61-3.55.61ZM288.26,139.07h12.83c-.1-1.21-.45-2.28-1.05-3.21-.6-.93-1.37-1.65-2.31-2.17s-1.97-.78-3.1-.78-2.13.26-3.06.78-1.7,1.25-2.29,2.17c-.59.93-.93,2-1.03,3.21Z"/>
          <path class="cls-1" d="M317.71,149.89c-1.54,0-2.91-.38-4.11-1.14-1.2-.76-2.15-1.73-2.85-2.9v11.36h-3.17v-26.38h2.81v3.54c.74-1.14,1.72-2.07,2.92-2.77,1.2-.7,2.51-1.06,3.93-1.06,1.3,0,2.49.26,3.57.79,1.08.52,2.02,1.24,2.81,2.15.79.91,1.41,1.94,1.86,3.09.44,1.16.67,2.37.67,3.63,0,1.76-.35,3.39-1.06,4.87-.71,1.48-1.7,2.65-2.97,3.52-1.27.87-2.74,1.31-4.4,1.31ZM316.74,147.15c.94,0,1.78-.2,2.54-.59.76-.39,1.41-.92,1.95-1.57.54-.65.96-1.4,1.24-2.23.29-.83.43-1.69.43-2.57,0-.93-.16-1.81-.49-2.64s-.78-1.57-1.37-2.21c-.59-.64-1.27-1.15-2.05-1.52-.78-.37-1.63-.55-2.54-.55-.58,0-1.17.11-1.78.32-.61.21-1.2.52-1.75.91-.55.39-1.02.84-1.41,1.34-.38.5-.64,1.03-.76,1.6v5.33c.36.81.84,1.54,1.44,2.21.6.66,1.3,1.19,2.09,1.58.79.39,1.61.59,2.45.59Z"/>
          <path class="cls-1" d="M339.98,133.49c-1.59.02-2.99.43-4.2,1.21-1.21.78-2.07,1.86-2.58,3.23v11.61h-3.17v-18.71h2.96v4.25c.65-1.3,1.51-2.35,2.58-3.15,1.07-.8,2.19-1.26,3.37-1.35h.61c.17,0,.31.01.43.04v2.88Z"/>
          <path class="cls-1" d="M343.12,127.18v-3.96h3.17v3.96h-3.17ZM343.12,149.53v-18.81h3.17v18.81h-3.17Z"/>
          <path class="cls-1" d="M357.86,149.89c-1.56,0-3.03-.26-4.4-.77-1.37-.52-2.55-1.29-3.53-2.32l1.23-2.23c1.08,1.01,2.16,1.73,3.24,2.16,1.08.43,2.19.65,3.32.65,1.3,0,2.35-.24,3.17-.73.82-.49,1.23-1.2,1.23-2.15,0-.69-.21-1.2-.63-1.54-.42-.33-1.02-.61-1.78-.84-.77-.23-1.68-.48-2.74-.77-1.3-.38-2.39-.79-3.28-1.22-.89-.43-1.56-.97-2.02-1.61-.46-.64-.68-1.46-.68-2.43,0-1.19.31-2.2.94-3.02.62-.82,1.48-1.45,2.58-1.88,1.09-.43,2.34-.64,3.73-.64s2.65.22,3.78.65c1.13.43,2.1,1.07,2.92,1.91l-1.44,2.2c-.75-.77-1.56-1.34-2.45-1.71-.89-.37-1.89-.56-2.99-.56-.65,0-1.29.08-1.91.23-.62.15-1.14.43-1.55.82-.41.39-.61.95-.61,1.66,0,.6.16,1.07.49,1.41.32.35.8.64,1.44.88.64.24,1.41.5,2.32.79,1.42.41,2.65.81,3.69,1.22,1.05.4,1.86.93,2.43,1.57.58.64.87,1.54.87,2.68,0,1.76-.67,3.14-2.02,4.13-1.35.99-3.12,1.48-5.33,1.48Z"/>
          <path class="cls-1" d="M377.32,149.89c-1.42,0-2.71-.26-3.87-.77-1.17-.51-2.17-1.22-3.03-2.11-.85-.89-1.51-1.93-1.98-3.09-.47-1.17-.7-2.41-.7-3.72,0-1.77.41-3.37,1.23-4.83.82-1.45,1.95-2.62,3.41-3.51,1.45-.88,3.12-1.32,4.99-1.32s3.55.45,4.96,1.34c1.41.9,2.5,2.06,3.28,3.51.78,1.44,1.17,3,1.17,4.67,0,.24,0,.47-.02.7-.01.23-.03.4-.05.52h-15.61c.1,1.21.44,2.29,1.03,3.22.59.94,1.35,1.67,2.29,2.21s1.95.8,3.03.8c1.15,0,2.24-.29,3.26-.87,1.02-.58,1.72-1.33,2.11-2.27l2.74.76c-.41.91-1.02,1.73-1.82,2.45-.81.72-1.75,1.29-2.85,1.69-1.09.41-2.28.61-3.55.61ZM370.98,139.07h12.83c-.1-1.21-.45-2.28-1.05-3.21-.6-.93-1.37-1.65-2.31-2.17s-1.97-.78-3.1-.78-2.13.26-3.06.78-1.7,1.25-2.29,2.17c-.59.93-.93,2-1.03,3.21Z"/>
          <path class="cls-1" d="M396.75,149.89c-1.56,0-3.03-.26-4.4-.77s-2.55-1.29-3.53-2.32l1.23-2.23c1.08,1.01,2.16,1.73,3.24,2.16,1.08.43,2.19.65,3.32.65,1.3,0,2.35-.24,3.17-.73.82-.49,1.23-1.2,1.23-2.15,0-.69-.21-1.2-.63-1.54-.42-.33-1.02-.61-1.78-.84-.77-.23-1.68-.48-2.74-.77-1.3-.38-2.39-.79-3.28-1.22-.89-.43-1.56-.97-2.02-1.61-.46-.64-.68-1.46-.68-2.43,0-1.19.31-2.2.94-3.02.62-.82,1.48-1.45,2.58-1.88,1.09-.43,2.34-.64,3.73-.64s2.65.22,3.78.65c1.13.43,2.1,1.07,2.92,1.91l-1.44,2.2c-.75-.77-1.56-1.34-2.45-1.71-.89-.37-1.89-.56-2.99-.56-.65,0-1.29.08-1.91.23-.62.15-1.14.43-1.55.82-.41.39-.61.95-.61,1.66,0,.6.16,1.07.49,1.41.32.35.8.64,1.44.88.64.24,1.41.5,2.32.79,1.42.41,2.65.81,3.69,1.22,1.05.4,1.86.93,2.43,1.57.58.64.87,1.54.87,2.68,0,1.76-.67,3.14-2.02,4.13-1.35.99-3.12,1.48-5.33,1.48Z"/>
        </g>
        <g>
          <path class="cls-1" d="M218.33,56.55v-25.59h16.9v2.88h-13.66v8.54h11.5v2.7h-11.5v11.46h-3.24Z"/>
          <path class="cls-1" d="M245.91,56.91c-1.42,0-2.7-.26-3.86-.77-1.15-.51-2.15-1.22-2.99-2.11-.84-.89-1.49-1.93-1.95-3.09-.46-1.17-.68-2.4-.68-3.68s.23-2.55.68-3.72c.46-1.17,1.11-2.2,1.95-3.09.84-.89,1.84-1.6,3.01-2.11,1.17-.51,2.46-.77,3.87-.77s2.67.26,3.82.77c1.15.51,2.16,1.22,3.01,2.11.85.89,1.51,1.93,1.96,3.09.46,1.17.68,2.41.68,3.72s-.23,2.52-.68,3.68c-.46,1.17-1.11,2.2-1.95,3.09s-1.84,1.6-3.01,2.11c-1.17.51-2.46.77-3.87.77ZM239.67,47.29c0,1.28.28,2.45.85,3.5.56,1.05,1.32,1.87,2.25,2.48.94.61,1.98.91,3.14.91s2.2-.31,3.15-.93c.95-.62,1.71-1.46,2.27-2.51.56-1.06.85-2.23.85-3.51s-.28-2.45-.85-3.5c-.56-1.05-1.32-1.88-2.27-2.5-.95-.62-2-.93-3.15-.93s-2.2.32-3.14.95c-.94.63-1.69,1.47-2.25,2.51-.56,1.05-.85,2.22-.85,3.53Z"/>
          <path class="cls-1" d="M269.23,40.51c-1.59.02-2.99.43-4.2,1.21-1.21.78-2.07,1.86-2.58,3.23v11.61h-3.17v-18.71h2.96v4.25c.65-1.3,1.51-2.35,2.58-3.15,1.07-.8,2.19-1.26,3.37-1.35h.61c.17,0,.31.01.43.04v2.88Z"/>
          <path class="cls-1" d="M272.18,49.06v-11.22h3.17v10.6c0,1.91.34,3.34,1.01,4.3.67.96,1.67,1.43,2.99,1.43.87,0,1.7-.18,2.51-.55.8-.37,1.53-.9,2.18-1.59s1.15-1.51,1.51-2.46v-11.72h3.17v15.11c0,.38.08.66.23.84.16.18.41.28.78.3v2.45c-.36.05-.64.08-.85.09-.2.01-.4.02-.59.02-.6,0-1.12-.18-1.55-.56-.43-.37-.66-.83-.68-1.38l-.07-2.19c-.82,1.39-1.92,2.46-3.3,3.23-1.38.76-2.89,1.15-4.52,1.15-1.97,0-3.46-.66-4.47-1.99-1.01-1.33-1.51-3.28-1.51-5.86Z"/>
          <path class="cls-1" d="M322.39,56.55h-3.17v-10.43c0-1.95-.32-3.39-.96-4.32-.64-.93-1.58-1.39-2.83-1.39s-2.43.46-3.46,1.38c-1.03.92-1.77,2.1-2.2,3.55v11.22h-3.17v-10.43c0-1.98-.31-3.42-.94-4.34-.63-.92-1.56-1.38-2.81-1.38s-2.4.45-3.44,1.34c-1.05.89-1.78,2.07-2.22,3.54v11.27h-3.17v-18.71h2.88v4.04c.77-1.38,1.77-2.45,2.99-3.2,1.23-.75,2.61-1.13,4.15-1.13s2.81.42,3.75,1.27c.94.85,1.51,1.94,1.73,3.27.84-1.48,1.86-2.61,3.06-3.38,1.2-.77,2.57-1.16,4.11-1.16,1.08,0,1.99.2,2.72.59.73.39,1.32.94,1.75,1.65.43.7.74,1.53.94,2.49.19.95.29,1.99.29,3.11v11.16Z"/>
        </g>
        <g>
          <path class="cls-1" d="M242.19,114.36c-3.1,0-6.04-.63-8.8-1.89-2.76-1.26-5.19-3-7.28-5.23-2.09-2.23-3.72-4.82-4.89-7.79-1.17-2.97-1.75-6.18-1.75-9.64,0-3.28.58-6.37,1.75-9.27,1.17-2.9,2.81-5.45,4.92-7.65,2.11-2.2,4.59-3.93,7.42-5.19,2.83-1.26,5.91-1.89,9.24-1.89,4.49,0,8.35.96,11.56,2.87,3.21,1.91,5.63,4.44,7.25,7.59l-6.95,5.12c-1.21-2.38-2.91-4.2-5.09-5.46-2.18-1.26-4.55-1.89-7.11-1.89-2.02,0-3.87.43-5.53,1.28-1.66.85-3.1,2.02-4.32,3.51-1.21,1.48-2.15,3.19-2.8,5.12-.65,1.93-.98,3.98-.98,6.14,0,2.29.35,4.41,1.05,6.34.7,1.93,1.69,3.62,2.97,5.06,1.28,1.44,2.78,2.57,4.48,3.41,1.71.83,3.6,1.25,5.66,1.25,2.43,0,4.75-.63,6.98-1.89,2.23-1.26,4.3-3.1,6.24-5.53v9.17c-4,4.32-8.68,6.47-14.03,6.47ZM255.54,96.22h-9.64v-6.81h17.33v24.61h-7.69v-17.8Z"/>
          <path class="cls-1" d="M304.43,105.86v8.16h-33.24v-47.88h32.64v8.16h-23.33v11.53h20.16v7.55h-20.16v12.48h23.94Z"/>
          <path class="cls-1" d="M321.02,83.27v30.75h-9.31v-47.88h7.42l24.75,31.56v-31.49h9.31v47.81h-7.75l-24.41-30.75Z"/>
          <path class="cls-1" d="M363.17,114.02v-47.88h9.31v47.88h-9.31Z"/>
        </g>
      </g>
    </g>
  </g>
</svg>